<svg width="78" height="22" viewBox="0 0 78 22" fill="none" xmlns="http://www.w3.org/2000/svg">
<path d="M23.3058 15.709C23.3058 19.1672 20.6302 21.9632 17.3209 21.9632H0V16.2241H4.1542V17.6221H17.3209C18.3418 17.6221 19.1868 16.7391 19.1868 15.6722C19.1868 14.6053 18.3418 13.7224 17.3209 13.7224H0V9.41807H13.906C14.9269 9.41807 15.7719 8.53512 15.7719 7.46823C15.7719 6.40134 14.9269 5.5184 13.906 5.5184H4.1542V6.91638H0V1.21403H13.906C17.2153 1.21403 19.8909 4.01004 19.8909 7.46823C19.8909 8.31437 19.7501 9.08693 19.4332 9.82273C21.7216 10.7425 23.3058 13.0234 23.3058 15.709ZM52.6315 1.21403H77.4512V5.55516H52.6315V1.21403ZM62.9821 8.02004H67.1361V21.9632H62.9821V8.02004ZM41.6476 12.6923L44.7809 17.0334H33.48L29.8891 21.9632H24.6788L40.6267 0L56.5744 22H51.3641L40.6267 7.21072L36.6133 12.7291H41.6476V12.6923Z" fill="white"/>
</svg>
